<svg width="28" height="28" viewBox="0 0 28 28" fill="none" xmlns="http://www.w3.org/2000/svg">
  <rect width="28" height="28" rx="6" fill="#2563EB"/>
  <path d="M8.5 10.5C8.5 9.39543 9.39543 8.5 10.5 8.5H11.5C12.6046 8.5 13.5 9.39543 13.5 10.5V11.5C13.5 12.6046 12.6046 13.5 11.5 13.5H10.5C9.39543 13.5 8.5 12.6046 8.5 11.5V10.5Z" fill="white"/>
  <path d="M14.5 16.5C14.5 15.3954 15.3954 14.5 16.5 14.5H17.5C18.6046 14.5 19.5 15.3954 19.5 16.5V17.5C19.5 18.6046 18.6046 19.5 17.5 19.5H16.5C15.3954 19.5 14.5 18.6046 14.5 17.5V16.5Z" fill="white"/>
  <path d="M11 14C11 14.5523 10.5523 15 10 15C9.44772 15 9 14.5523 9 14C9 13.4477 9.44772 13 10 13C10.5523 13 11 13.4477 11 14Z" fill="white"/>
  <path d="M13.5 11.5L14.5 16.5" stroke="white" stroke-width="1.5" stroke-linecap="round"/>
</svg>
